<svg height="720" viewBox="0 0 1008 720" width="1008" xmlns="http://www.w3.org/2000/svg"><path d="m504.6 565.1c0 21.1-14.4 38.7-47.5 38.7h-67.5l-25.8-32.2h-3.9v8.3c0 16.5 2.1 19.5 15.1 19.5v4.4h-46.2v-4.4c13 0 15.1-3 15.1-19.5v-29.6c0-16.5-2.1-19.3-15.1-19.3v-4.4h40.8c20.5 0 31.4 9.8 31.4 22.5 0 10.2-7.7 19.3-22.1 21.8l10.7 11.6c9.3 10.2 16 15.5 26 16.9 12.9 0 15-3 15-19.5v-29.6c0-16.5-2.1-19.3-15-19.3v-4.4h41.5c33.1 0 47.5 17.4 47.5 38.5zm-135.2-.7c10.4 0 15.1-7.2 15.1-15.3 0-8.3-4.7-15.5-15.1-15.5h-9.5v30.8zm116.9.5c0-13.7-4.4-31.3-28.5-31.3-1 0-11.2 0-11.2 0v50.3c0 10.7 1.2 12.7 9.5 12.7h1.7c24.1 0 28.5-17.6 28.5-31.7z" fill="#00759b" fill-rule="evenodd"/><path d="m199.7 573 16-47.3c4.6-13.7 2.5-17.6-12.3-17.6v-4.7h43.6v4.7c-14.6 0-18.1 3.4-23.9 20.4l-26.5 79.3h-3l-23.6-72.6-24.1 72.6h-3.1l-25.7-79.3c-5.6-17-9.3-20.4-22.7-20.4v-4.7h51.5v4.7c-13.7 0-17.4 3.2-12.6 17.6l15.6 47.3 23.4-69.6h4.4z" fill="#00759b"/><path d="m278.5 606.8c-25.5 0-46.4-18.7-46.4-41.7 0-22.7 20.9-41.5 46.4-41.5s46.4 18.8 46.4 41.5c0 23-20.9 41.7-46.4 41.7zm0-76c-21.3 0-28.7 19.2-28.7 34.3 0 15.3 7.4 34.3 28.7 34.3 21.6 0 29-19 29-34.3 0-15.1-7.4-34.3-29-34.3z" fill="#00759b" fill-rule="evenodd"/><g fill="#454341"><path d="m561.9 599.2v4.6h-53.1v-4.6c15.5 0 18.3-3.9 18.3-27.1v-37.1c0-23.2-2.8-26.9-18.3-26.9v-4.7h48c23.9 0 37.1 12.3 37.1 28.8 0 16-13.2 28.5-37.1 28.5h-13.2v11.4c0 23.2 2.8 27.1 18.3 27.1zm-5.1-87.4h-13.2v40.3h13.2c13 0 19-9 19-19.9 0-11.2-6-20.4-19-20.4z" fill-rule="evenodd"/><path d="m756.7 582-1.4 21.8h-95.3l-25.8-32.2h-3.9v8.3c0 16.5 2.1 19.5 15.1 19.5v4.4h-46.2v-4.4c13 0 15.1-3 15.1-19.5v-29.6c0-16.5-2.1-19.3-15.1-19.3v-4.4h40.8c20.5 0 31.4 9.8 31.4 22.5 0 10.2-7.7 19.3-22.1 21.8l10.7 11.6c9.1 10.1 15.8 15.4 25.5 16.8 10.3-.5 12.1-4.3 12.1-19.4v-29.6c0-16.5-2.1-19.3-15.1-19.3v-4.4h68.2l1.6 21.8h-3.7l-1.2-4.4c-2.1-7.6-4.6-10.4-21.1-10.4h-12.7v25.9c18 0 19.4-1.6 19.4-13.6h4.4v34.5h-4.4c0-12-1.4-13.7-19.4-13.7v10.7c0 16.5 2 19.2 14.1 19.2h3.2c16.5 0 19.1-2.7 21.2-10.4l1.1-4.2zm-116.9-17.6c10.5 0 15.1-7.2 15.1-15.3 0-8.3-4.6-15.5-15.1-15.5h-9.5v30.8z" fill-rule="evenodd"/><path d="m800.3 606.8c-9.3 0-17.4-4.8-20.9-7.8-1.1 1.1-3.2 4.6-3.7 7.8h-4.4v-32h4.6c1.9 15.4 12.6 24.4 26.2 24.4 7.5 0 13.5-4.2 13.5-11.1 0-6.1-5.3-10.7-14.8-15.1l-13.3-6.3c-9.2-4.4-16.2-12-16.2-22.2 0-11.2 10.4-20.7 24.8-20.7 7.7 0 14.2 2.8 18.1 6.1 1.2-1 2.3-3.5 3-6.3h4.4v27.4h-4.8c-1.7-10.9-7.7-20-20-20-6.5 0-12.5 3.7-12.5 9.5 0 6.1 4.9 9.3 16 14.4l12.7 6.3c11.2 5.3 15.6 13.9 15.6 20.8 0 14.6-12.8 24.8-28.3 24.8z"/><path d="m871.7 606.8c-9.3 0-17.4-4.8-20.9-7.8-1.1 1.1-3.2 4.6-3.7 7.8h-4.4v-32h4.7c1.8 15.4 12.5 24.4 26.2 24.4 7.4 0 13.4-4.2 13.4-11.1 0-6.1-5.3-10.7-14.8-15.1l-13.2-6.3c-9.3-4.4-16.3-12-16.3-22.2 0-11.2 10.5-20.7 24.8-20.7 7.7 0 14.2 2.8 18.1 6.1 1.2-1 2.3-3.5 3-6.3h4.4v27.4h-4.8c-1.6-10.9-7.7-20-20-20-6.5 0-12.5 3.7-12.5 9.5 0 6.1 4.9 9.3 16 14.4l12.8 6.3c11.1 5.3 15.5 13.9 15.5 20.8 0 14.6-12.8 24.8-28.3 24.8z"/><path d="m346.6 282.4c0 59.3 34.4 110.6 84.4 134.9l-71.5-195.8c-8.3 18.6-12.9 39.2-12.9 60.9z"/><path d="m597.5 274.9c0-18.5-6.6-31.4-12.3-41.3-7.6-12.4-14.7-22.8-14.7-35.2 0-13.8 10.4-26.6 25.1-26.6.7 0 1.3.1 2 .1-26.7-24.4-62.2-39.3-101.2-39.3-52.3 0-98.4 26.9-125.2 67.5 3.5.2 6.8.2 9.7.2 15.6 0 39.9-1.9 39.9-1.9 8.1-.5 9 11.4.9 12.4 0 0-8.1.9-17.1 1.4l54.6 162.3 32.7-98.4-23.3-63.9c-8.1-.5-15.7-1.4-15.7-1.4-8.1-.5-7.1-12.9.9-12.4 0 0 24.8 1.9 39.5 1.9 15.7 0 39.9-1.9 39.9-1.9 8.1-.5 9.1 11.4 1 12.4 0 0-8.1.9-17.2 1.4l54.2 161.1 14.9-50c6.5-20.7 11.4-35.6 11.4-48.4z"/><path d="m499 295.5-44.9 130.7c13.4 3.9 27.6 6.1 42.3 6.1 17.4 0 34.2-3 49.7-8.5q-.6-1-1-2.1z"/><path d="m627.9 210.6c.6 4.7 1 9.8 1 15.4 0 15.2-2.9 32.3-11.4 53.6l-45.8 132.3c44.6-25.9 74.5-74.2 74.5-129.5 0-26-6.6-50.5-18.3-71.8z"/><path d="m671.1 282.4c0 96.4-78.4 174.7-174.7 174.7s-174.7-78.3-174.7-174.7c0-96.3 78.4-174.6 174.7-174.6s174.7 78.3 174.7 174.6zm-8.1 0c0-91.8-74.7-166.6-166.6-166.6s-166.7 74.8-166.7 166.6c0 91.9 74.8 166.7 166.7 166.7s166.6-74.8 166.6-166.7z" fill-rule="evenodd"/></g></svg>